# xmcd
#
# Track frame offsets: 
#        150
#        16727
#        29053
#        46618
#        64203
#        78470
#        97443
#        114770
#        133121
#        146672
#        165986
#        184096
#        209919
#        226255
#        241254
#        262581
#        281526
#        295532
#        307546
#        323117
#
# Disc length: 4489 seconds
#
# Revision: 0
# Processed by: cddbd v1.5.2PL0 Copyright (c) Steve Scherf et al.
# Submitted via: ExactAudioCopy v1.1
#
DISCID=0e118714
DTITLE=Frank Boeijen Groep - The Golden Years Of Dutch Pop Music - CD 
DTITLE=1
DYEAR=2017
DGENRE=Pop-Folk
TTITLE0=Transport Uit Bangkok
TTITLE1=Verjaardagsfeest
TTITLE2=Vrijdagavond
TTITLE3='s Nachts Wanneer Ik Waak
TTITLE4=Blok Aan Mijn Been
TTITLE5=Ik Haat Jou
TTITLE6=Fantasie
TTITLE7=Liebling
TTITLE8=Zo Mooi
TTITLE9=Verrekijker
TTITLE10=Het Antwoord
TTITLE11=Sneeuwblind
TTITLE12=Linda
TTITLE13=Nachtportier
TTITLE14=Doe Iets
TTITLE15=Macho
TTITLE16=Zwart Wit
TTITLE17=Kamer Voor Twee
TTITLE18=Crime Passionel
TTITLE19=De Kooi
EXTD=
EXTT0=
EXTT1=
EXTT2=
EXTT3=
EXTT4=
EXTT5=
EXTT6=
EXTT7=
EXTT8=
EXTT9=
EXTT10=
EXTT11=
EXTT12=
EXTT13=
EXTT14=
EXTT15=
EXTT16=
EXTT17=
EXTT18=
EXTT19=
PLAYORDER=
